<!-- Generated by IcoMoon.io -->
<svg version="1.1" xmlns="http://www.w3.org/2000/svg" width="1062" height="1024" viewBox="0 0 1062 1024">
<title>twitter</title>
<g id="icomoon-ignore">
</g>
<path d="M910.222 144.071c-28.206 12.373-58.266 20.575-89.6 24.557 32.237-19.247 56.843-49.493 68.407-85.95-30.053 17.92-63.238 30.578-98.607 37.641-28.539-30.388-69.215-49.209-113.588-49.209-86.088 0-155.401 69.879-155.401 155.544 0 12.326 1.043 24.178 3.607 35.461-129.282-6.305-243.676-68.267-320.523-162.655-13.416 23.277-21.286 49.92-21.286 78.601 0 53.855 27.733 101.594 69.073 129.233-24.984-0.474-49.493-7.727-70.258-19.153 0 0.474 0 1.090 0 1.707 0 75.567 53.902 138.335 124.587 152.792-12.658 3.463-26.453 5.12-40.77 5.12-9.956 0-20.006-0.565-29.44-2.655 20.148 61.584 77.321 106.86 145.304 108.328-52.907 41.389-120.083 66.321-192.806 66.321-12.753 0-24.984-0.565-37.215-2.131 68.883 44.423 150.519 69.784 238.554 69.784 286.151 0 442.596-237.037 442.596-442.501 0-6.874-0.235-13.511-0.569-20.101 30.864-21.902 56.794-49.256 77.938-80.735z"></path>
</svg>
